<svg width="38" height="48" viewBox="0 0 38 48" fill="none" xmlns="http://www.w3.org/2000/svg">
<path d="M7.52353 47.36H30.4767C35.106 47.36 37.4961 44.9238 37.4961 40.2669V20.6906C37.4961 17.6722 37.1085 16.2924 35.2352 14.3736L23.974 2.92535C22.1438 1.07121 20.6365 0.640015 17.9235 0.640015H7.52353C2.91568 0.640015 0.504089 3.07627 0.504089 7.75474V40.2669C0.504089 44.9238 2.91568 47.36 7.52353 47.36ZM7.88957 43.0481C5.8225 43.0481 4.78896 41.9701 4.78896 39.9866V8.01345C4.78896 6.05151 5.8225 4.95197 7.9111 4.95197H17.0407V16.6805C17.0407 19.8066 18.5695 21.3158 21.6701 21.3158H33.2112V39.9866C33.2112 41.9701 32.1777 43.0481 30.0891 43.0481H7.88957ZM22.0792 17.5429C21.1748 17.5429 20.7872 17.1548 20.7872 16.2708V5.51252L32.6299 17.5429H22.0792Z" fill="white"/>
<path d="M14.2809 21.4202C14.4195 21.3594 14.4676 21.2369 14.4284 21.0893C13.9796 19.1941 13.9489 19.1822 15.6359 18.0121C15.7653 17.9301 15.824 17.803 15.7587 17.654C15.6982 17.5158 15.5649 17.4727 15.4169 17.5122C13.4284 17.965 13.4571 17.9144 12.3362 16.3136C12.2543 16.1846 12.1317 16.1369 11.993 16.1977C11.8544 16.2584 11.8063 16.3809 11.8349 16.5332C12.253 18.4165 12.3203 18.425 10.6273 19.6104C10.498 19.6924 10.4499 19.8149 10.5105 19.9532C10.5757 20.1021 10.6983 20.1498 10.857 20.1056C12.8502 19.6635 12.8488 19.6895 13.927 21.3089C14.0196 21.4332 14.1422 21.4809 14.2809 21.4202ZM12.3689 31.132C12.5823 31.0386 12.677 30.8196 12.6159 30.5928C11.7544 27.6106 11.8351 27.5626 14.537 25.7198C14.7257 25.5991 14.8204 25.3801 14.7226 25.1567C14.6294 24.944 14.3995 24.8545 14.1722 24.9161C11.0723 25.7923 10.9284 25.7539 9.30761 23.041C9.17776 22.8316 8.95252 22.7528 8.73917 22.8463C8.51516 22.9444 8.42039 23.1634 8.50156 23.4068C9.37966 26.369 9.25165 26.4251 6.56648 28.2479C6.37177 28.3839 6.28766 28.5982 6.38085 28.811C6.48336 29.045 6.69328 29.1178 6.96327 29.0376C10.0544 28.2286 10.209 28.2623 11.7958 30.9267C11.9197 31.1513 12.1449 31.2302 12.3689 31.132ZM24.91 39.6468C25.2194 39.5113 25.3562 39.1852 25.2591 38.8474C23.5017 32.746 23.927 31.4821 29.3697 28.3498C29.6817 28.1624 29.8093 27.815 29.6741 27.5065C29.539 27.198 29.1972 27.0562 28.8478 27.1585C22.8627 28.9945 21.6792 28.4987 18.3444 23.063C18.1513 22.7673 17.8294 22.642 17.5201 22.7775C17.2107 22.9131 17.0739 23.2392 17.171 23.577C18.9284 29.6784 18.5031 30.9423 13.0604 34.0746C12.7377 34.2667 12.6208 34.6094 12.756 34.9179C12.8911 35.2263 13.2223 35.3728 13.5823 35.2658C19.588 33.535 20.7082 33.9444 24.0857 39.3614C24.2788 39.6571 24.6007 39.7824 24.91 39.6468Z" fill="white"/>
</svg>
